<?xml version="1.0" encoding="UTF-8"?>
<!DOCTYPE svg PUBLIC "-//W3C//DTD SVG 1.1//EN" "http://www.w3.org/Graphics/SVG/1.1/DTD/svg11.dtd">
<!-- Creator: CorelDRAW -->
<svg xmlns="http://www.w3.org/2000/svg" xml:space="preserve" width="10in" height="10in" version="1.1" style="shape-rendering:geometricPrecision; text-rendering:geometricPrecision; image-rendering:optimizeQuality; fill-rule:evenodd; clip-rule:evenodd"
viewBox="0 0 10000 10000"
 xmlns:xlink="http://www.w3.org/1999/xlink"
 xmlns:xodm="http://www.corel.com/coreldraw/odm/2003">
 <defs>
  <style type="text/css">
   <![CDATA[
    .fil0 {fill:white}
   ]]>
  </style>
 </defs>
 <g id="Layer_x0020_1">
  <metadata id="CorelCorpID_0Corel-Layer"/>
  <g id="_2182249679936">
   <path class="fil0" d="M4832.17 8751.67l312.29 0 0 624.59 -312.29 0 0 -624.59zm2810.65 624.59l-624.59 0 0 -3747.53 1561.47 0 0 3747.53 -624.59 0 0 -468.44 -312.3 0 0 468.44zm-5621.3 0l-624.59 0 0 -6558.18 1561.47 0 0 6558.18 -624.59 0 0 -468.44 -312.3 0 0 468.44zm3122.94 -8119.65l2810.65 0 0 4059.83 -312.3 0 0 -312.3 -312.29 0 0 312.3 -312.3 0 0 -1717.62c0,-94.42 -61.73,-156.15 -156.15,-156.15l-1717.62 0 0 -2186.06zm1249.18 -312.3l-1405.32 0c-94.42,0 -156.15,61.73 -156.15,156.15l0 2342.2 -331.81 0 0 312.3 2205.57 0 0 5621.3 -1249.18 0 0 -780.74c0,-94.42 -61.73,-156.15 -156.15,-156.15l-624.59 0c-94.41,0 -156.15,61.73 -156.15,156.15l0 780.74 -1249.18 0 0 -5621.3 331.81 0 0 -312.3 -331.81 0 0 -780.74c0,-218.56 -291.83,-156.15 -624.59,-156.15l0 -624.59 -312.29 0 0 624.59 -312.3 0 0 -312.3 -312.3 0 0 312.3c-332.76,0 -624.59,-62.42 -624.59,156.15l0 6714.33 -780.74 0 0 312.29 9368.83 0 0 -312.29 -780.74 0 0 -3903.68c0,-218.56 -291.83,-156.15 -624.59,-156.15l0 -4215.97c0,-94.42 -61.73,-156.15 -156.15,-156.15l-780.74 0 0 -312.29 -312.3 0 0 312.29 -312.3 0 0 -624.59 -312.3 0 0 624.59z"/>
   <polygon class="fil0" points="5456.75,2349.64 5769.05,2349.64 5769.05,1881.2 5456.75,1881.2 "/>
   <polygon class="fil0" points="6081.34,2349.64 6393.63,2349.64 6393.63,1881.2 6081.34,1881.2 "/>
   <polygon class="fil0" points="6705.93,2349.64 7018.22,2349.64 7018.22,1881.2 6705.93,1881.2 "/>
   <polygon class="fil0" points="7330.52,2349.64 7642.81,2349.64 7642.81,1881.2 7330.52,1881.2 "/>
   <polygon class="fil0" points="5456.75,3130.37 5769.05,3130.37 5769.05,2661.93 5456.75,2661.93 "/>
   <polygon class="fil0" points="6081.34,3130.37 6393.63,3130.37 6393.63,2661.93 6081.34,2661.93 "/>
   <polygon class="fil0" points="6705.93,3130.37 7018.22,3130.37 7018.22,2661.93 6705.93,2661.93 "/>
   <polygon class="fil0" points="7330.52,3130.37 7642.81,3130.37 7642.81,2661.93 7330.52,2661.93 "/>
   <polygon class="fil0" points="1709.22,3598.81 2021.52,3598.81 2021.52,3130.37 1709.22,3130.37 "/>
   <polygon class="fil0" points="2333.81,3598.81 2646.1,3598.81 2646.1,3130.37 2333.81,3130.37 "/>
   <polygon class="fil0" points="7330.52,3911.11 7642.81,3911.11 7642.81,3442.67 7330.52,3442.67 "/>
   <polygon class="fil0" points="1709.22,4379.55 2021.52,4379.55 2021.52,3911.11 1709.22,3911.11 "/>
   <polygon class="fil0" points="2333.81,4379.55 2646.1,4379.55 2646.1,3911.11 2333.81,3911.11 "/>
   <polygon class="fil0" points="7330.52,4691.84 7642.81,4691.84 7642.81,4223.4 7330.52,4223.4 "/>
   <polygon class="fil0" points="1709.22,5160.28 2021.52,5160.28 2021.52,4691.84 1709.22,4691.84 "/>
   <polygon class="fil0" points="2333.81,5160.28 2646.1,5160.28 2646.1,4691.84 2333.81,4691.84 "/>
   <polygon class="fil0" points="3582.99,5160.28 3895.28,5160.28 3895.28,4691.84 3582.99,4691.84 "/>
   <polygon class="fil0" points="4207.57,5160.28 4519.87,5160.28 4519.87,4691.84 4207.57,4691.84 "/>
   <polygon class="fil0" points="4832.17,5160.28 5144.46,5160.28 5144.46,4691.84 4832.17,4691.84 "/>
   <polygon class="fil0" points="5456.75,5160.28 5769.05,5160.28 5769.05,4691.84 5456.75,4691.84 "/>
   <polygon class="fil0" points="6081.34,5160.28 6393.63,5160.28 6393.63,4691.84 6081.34,4691.84 "/>
   <polygon class="fil0" points="6081.34,5941.02 6393.63,5941.02 6393.63,5472.58 6081.34,5472.58 "/>
   <polygon class="fil0" points="5456.75,5941.02 5769.05,5941.02 5769.05,5472.58 5456.75,5472.58 "/>
   <polygon class="fil0" points="1709.22,5941.02 2021.52,5941.02 2021.52,5472.58 1709.22,5472.58 "/>
   <polygon class="fil0" points="2333.81,5941.02 2646.1,5941.02 2646.1,5472.58 2333.81,5472.58 "/>
   <polygon class="fil0" points="3582.99,5941.02 3895.28,5941.02 3895.28,5472.58 3582.99,5472.58 "/>
   <polygon class="fil0" points="4207.57,5941.02 4519.87,5941.02 4519.87,5472.58 4207.57,5472.58 "/>
   <polygon class="fil0" points="4832.17,5941.02 5144.46,5941.02 5144.46,5472.58 4832.17,5472.58 "/>
   <polygon class="fil0" points="4207.57,6721.76 4519.87,6721.76 4519.87,6253.31 4207.57,6253.31 "/>
   <polygon class="fil0" points="1709.22,6721.76 2021.52,6721.76 2021.52,6253.31 1709.22,6253.31 "/>
   <polygon class="fil0" points="2333.81,6721.76 2646.1,6721.76 2646.1,6253.31 2333.81,6253.31 "/>
   <polygon class="fil0" points="3582.99,6721.76 3895.28,6721.76 3895.28,6253.31 3582.99,6253.31 "/>
   <polygon class="fil0" points="4832.17,6721.76 5144.46,6721.76 5144.46,6253.31 4832.17,6253.31 "/>
   <polygon class="fil0" points="5456.75,6721.76 5769.05,6721.76 5769.05,6253.31 5456.75,6253.31 "/>
   <polygon class="fil0" points="6081.34,6721.76 6393.63,6721.76 6393.63,6253.31 6081.34,6253.31 "/>
   <polygon class="fil0" points="7330.52,6721.76 7642.81,6721.76 7642.81,6253.31 7330.52,6253.31 "/>
   <polygon class="fil0" points="7955.11,6721.76 8267.4,6721.76 8267.4,6253.31 7955.11,6253.31 "/>
   <polygon class="fil0" points="1709.22,7502.49 2021.52,7502.49 2021.52,7034.05 1709.22,7034.05 "/>
   <polygon class="fil0" points="2333.81,7502.49 2646.1,7502.49 2646.1,7034.05 2333.81,7034.05 "/>
   <polygon class="fil0" points="3582.99,7502.49 3895.28,7502.49 3895.28,7034.05 3582.99,7034.05 "/>
   <polygon class="fil0" points="4207.57,7502.49 4519.87,7502.49 4519.87,7034.05 4207.57,7034.05 "/>
   <polygon class="fil0" points="4832.17,7502.49 5144.46,7502.49 5144.46,7034.05 4832.17,7034.05 "/>
   <polygon class="fil0" points="5456.75,7502.49 5769.05,7502.49 5769.05,7034.05 5456.75,7034.05 "/>
   <polygon class="fil0" points="6081.34,7502.49 6393.63,7502.49 6393.63,7034.05 6081.34,7034.05 "/>
   <polygon class="fil0" points="7330.52,7502.49 7642.81,7502.49 7642.81,7034.05 7330.52,7034.05 "/>
   <polygon class="fil0" points="7955.11,7502.49 8267.4,7502.49 8267.4,7034.05 7955.11,7034.05 "/>
   <polygon class="fil0" points="1709.22,8283.23 2021.52,8283.23 2021.52,7814.79 1709.22,7814.79 "/>
   <polygon class="fil0" points="2333.81,8283.23 2646.1,8283.23 2646.1,7814.79 2333.81,7814.79 "/>
   <polygon class="fil0" points="7330.52,8283.23 7642.81,8283.23 7642.81,7814.79 7330.52,7814.79 "/>
   <polygon class="fil0" points="7955.11,8283.23 8267.4,8283.23 8267.4,7814.79 7955.11,7814.79 "/>
   <polygon class="fil0" points="3895.28,3754.96 4207.57,3754.96 4207.57,3442.67 3895.28,3442.67 "/>
  </g>
 </g>
</svg>
