<?xml version="1.0" encoding="UTF-8"?>
<!DOCTYPE svg PUBLIC "-//W3C//DTD SVG 1.1//EN" "http://www.w3.org/Graphics/SVG/1.1/DTD/svg11.dtd">
<!-- Creator: CorelDRAW -->
<svg xmlns="http://www.w3.org/2000/svg" xml:space="preserve" width="10in" height="10in" version="1.1" style="shape-rendering:geometricPrecision; text-rendering:geometricPrecision; image-rendering:optimizeQuality; fill-rule:evenodd; clip-rule:evenodd"
viewBox="0 0 10000 10000"
 xmlns:xlink="http://www.w3.org/1999/xlink"
 xmlns:xodm="http://www.corel.com/coreldraw/odm/2003">
 <defs>
  <style type="text/css">
   <![CDATA[
    .fil0 {fill:white}
   ]]>
  </style>
 </defs>
 <g id="Layer_x0020_1">
  <metadata id="CorelCorpID_0Corel-Layer"/>
  <g id="_2182073924160">
   <path class="fil0" d="M787.75 8701.69l0 -448.22 467.7 0c0,162.07 -29,296.41 155.9,311.8l0 311.8c-289.97,0 -623.6,62.94 -623.6,-175.38zm1559 -3624.67l285.24 552.71c83.76,171.79 241.6,194.2 345.12,-19.79l305.04 -591.39 0 2299.52 -935.4 0 0 -2241.06zm-1091.3 2864.65l-604.11 0c25.74,-110.51 47.51,-327.02 57.92,-448.74 13.59,-158.85 39.54,-324.23 55.54,-470.63 38.44,-351.45 315.26,-2616.67 315.26,-2841.71l934.25 -238.42 1.15 4311.3 -448.22 0 0 -2494.39 -311.8 0 0 2182.59zm2786.71 -2299.52l0 2611.32 -448.22 0 0 -4287.24c94.08,7.83 300.24,90.38 401.88,124.28 159.59,53.21 256.98,54.65 347.46,178.7 364.65,499.94 786.19,1025.69 1136.17,1514.12l180.16 365.49c60.65,-14.13 86.67,-33.85 136.24,-58.63l656.25 -318.12c92.49,-46.32 174.09,-84.55 259.83,-129.92l230.99 275.68c74.28,92.2 182.46,186.93 236.7,289.46l-1520.02 604.11c-196.27,-131.43 -1300.78,-1364.12 -1422.58,-1364.12 -124.01,0 -194.87,27.21 -194.87,194.87zm3390.82 331.29c-78.67,-52.69 -121.46,-126.13 -189.97,-199.79l-180.3 -228.93 327.5 -568.92c47.19,-78.27 54.35,-148.69 140.19,-171.6 60.76,126.63 -56.74,370.26 175.39,370.26 128.5,0 413.13,-311.8 506.68,-311.8 45.09,0 233.85,163.03 233.85,175.39 0,102.81 -232.85,328.63 -305.96,415.07 -48.2,57 -60.79,81.91 -117.4,135.94 -151.66,144.76 -405.81,286.94 -589.98,384.4zm-4638.02 -1559c21.43,33.78 136.41,456.45 136.41,545.65 0,49.76 -98.3,192.86 -116.92,272.83 -52.87,-38.74 -70.44,-103.48 -104.48,-168.87 -110.05,-211.4 54.43,-282.31 85,-649.61zm175.27 -682.04l311.91 -0.03 0 1208.22 -311.91 -1208.19zm-614.32 1113.05l-9.17 -1113.08 292.31 0 -283.15 1113.08zm-554.82 -1834.11l350.78 -1149.76c333.36,0 1198.93,-71.06 1542.22,-172.68 69.69,-20.63 120.77,-44.54 192.17,-61.17 0,189.75 -19.34,937.89 22.89,1087.89 54.3,192.9 195.66,518.24 -158.99,666.3 -175.08,73.08 -1410.98,38.66 -1656.75,38.66 -18.59,-69.61 -228.29,-313.62 -292.31,-409.24zm-233.85 -311.8l-38.97 0c-1.87,-83.88 -58.86,-254.76 -81.88,-346.85 -28.88,-115.52 -58.75,-227.96 -85.43,-362.79 -83.57,-422.43 -105.52,-511.87 -105.52,-946.8 0,-92.69 150.49,-173.37 220.37,-208.35 587.24,-294.04 2149.14,-220.37 2819.68,-220.37 -18.08,217.26 -283.18,568.08 -500.09,688.64 -246.2,136.85 -668.89,147.66 -1011.59,196.64 -130.04,18.59 -751.94,30.19 -834.39,62.05 -104.94,40.55 -217.57,544.64 -252.76,663.15 -32.47,109.33 -127.61,393.24 -129.43,474.69zm-643.08 -1617.46c0,734.52 229.34,1477.44 445.53,2146.3 97.86,302.75 239.55,173.22 314.48,153.22 47.59,89.93 152.83,188.33 175.39,272.82l-596.3 144.22c-609.5,152.35 -435.45,16.57 -561.81,938.72 -32.54,237.43 -45.23,443.07 -77.82,682.19 -62.06,455.27 -93.43,887.66 -156.03,1344.5l-147.55 1352.99c0,83.48 71.79,129.41 155.9,136.41 0,203.19 -36.94,492.87 32.23,649.83 159.13,361.09 489.78,285.57 903.17,285.57l0 467.7 311.8 0 0 -1091.3c737.19,0 623.6,143.26 623.6,-935.4l935.4 0 0 779.5c0,203.8 233.5,155.9 467.7,155.9l0 1091.3 311.8 0 0 -1091.3c349.05,0 311.8,-21.3 311.8,-526.17l0 -2026.69c105.73,70.79 225.24,227.44 338.39,324.18l74.29 62.13c162.59,141.86 700.13,763.45 834.52,763.45 97.76,0 1436.4,-558.96 1667.58,-651.43 473.65,-189.44 260.16,-169.54 341.24,-268.57 74.91,-91.5 329.48,-70.06 900.84,-749.89 179,-212.98 444.41,-459.57 41.26,-774.36 -106.17,-82.9 -180.37,-186.56 -359.08,-186.56 -166.05,0 -257.75,115.84 -370.27,175.39 -64.37,-241.05 -450.95,-295.27 -616.29,-90.13l-189.17 336.99c-45.76,85.79 -169.93,277.96 -188.39,357.26 -125.22,-60.09 -145.99,-25.25 -259.85,32.44l-772.99 376.79c-21.55,-80.72 -1165.78,-1571.28 -1261,-1701.09 -103.55,-141.17 -130.07,-130.34 -300.46,-186.72 -95.69,-31.66 -294.33,-111.66 -387.28,-119.39l0 -38.98c278.19,-64.81 529.27,-455.61 412.17,-860.38 -22.7,-78.44 -61.39,-138.11 -61.39,-230.92l0 -1169.25c0,-49.41 58.61,-86.57 89.36,-125.01 37.26,-46.57 57.94,-76.42 90.19,-124.17 95.48,-141.37 332.87,-622.91 271.37,-765.21 -17.07,-39.49 -69.38,-96.4 -119.63,-96.4l-1929.26 0c-375.67,0 -784.66,63.06 -1069.42,158.3 -275.85,92.25 -625.99,257.51 -625.99,621.2z"/>
   <path class="fil0" d="M8738.64 2407.24c83.53,6.95 238.53,69.72 314.28,94.96 101.16,33.71 207.78,76.26 309.32,99.91l0 1130.28 -623.6 0 0 -1325.15zm-1870.8 389.75l623.6 0 0 935.4 -623.6 0 0 -935.4zm-311.8 -155.9l0 1091.3 -623.6 0 0 -1870.8 2494.4 0 0 1870.8 -623.6 0 0 -1091.3c0,-94.27 -61.63,-155.9 -155.9,-155.9l-935.4 0c-94.27,0 -155.9,61.63 -155.9,155.9zm623.6 -1968.23c41.97,0 161.15,101.89 200.23,131.05 62.68,46.78 337.59,254.2 393.59,265.27 243.53,48.14 185.67,-300.26 185.67,-454.79l311.8 0 0 760.02c0,123.9 62.45,94.04 116.93,175.38l-2416.44 0c35.5,-53.02 86.13,-74.96 139.43,-113.91 52.98,-38.72 87.89,-68.94 145.05,-108.29 58.63,-40.34 93.58,-65.98 146.99,-106.35l461.94 -337.05c45.7,-33.57 278.07,-211.33 314.82,-211.33zm-1870.8 1032.83c0,185.34 183.66,155.9 311.8,155.9l0 1870.8 -467.7 0 0 311.8 4365.19 0c94.27,0 155.9,-61.63 155.9,-155.9l0 -1403.09c0,-112.18 -79.74,-144.43 -158.18,-173.11l-777.22 -255.61 0 -194.88c128.14,0 311.8,29.44 311.8,-155.9 0,-111.06 -97.9,-161.41 -198.74,-229.99 -71.5,-48.63 -195.63,-159.66 -268.96,-179.24 0,-188.39 -0.01,-376.76 0,-565.14 0.02,-505.76 80.04,-428.72 -779.5,-428.72 -164.41,0 -155.9,128.18 -155.9,292.31 -579.28,-387.91 -282.55,-476.26 -1439.05,373.28l-712.4 515.31c-40.09,27.56 -77.73,53.67 -112.88,81.99 -43.67,35.18 -74.17,66.42 -74.17,140.2z"/>
   <polygon class="fil0" points="2658.55,9656.57 2970.35,9656.57 2970.35,8721.18 2658.55,8721.18 "/>
  </g>
 </g>
</svg>
