<?xml version="1.0" encoding="UTF-8"?>
<!DOCTYPE svg PUBLIC "-//W3C//DTD SVG 1.1//EN" "http://www.w3.org/Graphics/SVG/1.1/DTD/svg11.dtd">
<!-- Creator: CorelDRAW -->
<svg xmlns="http://www.w3.org/2000/svg" xml:space="preserve" width="10in" height="10in" version="1.1" style="shape-rendering:geometricPrecision; text-rendering:geometricPrecision; image-rendering:optimizeQuality; fill-rule:evenodd; clip-rule:evenodd"
viewBox="0 0 10000 10000"
 xmlns:xlink="http://www.w3.org/1999/xlink"
 xmlns:xodm="http://www.corel.com/coreldraw/odm/2003">
 <defs>
  <style type="text/css">
   <![CDATA[
    .fil0 {fill:white}
   ]]>
  </style>
 </defs>
 <g id="Layer_x0020_1">
  <metadata id="CorelCorpID_0Corel-Layer"/>
  <g id="_2182243347600">
   <path class="fil0" d="M3172.15 5184.85c0,-379.56 8.58,-566.12 182.09,-910.65 601.96,-1195.26 2114.09,-1337.31 2915.63,-528.48 182.04,183.7 258.19,268.27 382.11,515.49 255.19,509.06 252.59,1112.96 13.02,1626.13 -135.32,289.87 -366.2,539.44 -628.07,718.31 -660.64,451.29 -1539.87,414.26 -2173.86,-82.39 -53.26,-41.72 -73.91,-69.66 -125.33,-108.83 -118.86,-90.54 -314.78,-376.45 -383.67,-513.92 -83.81,-167.25 -181.91,-474.73 -181.91,-715.69zm-1034.18 -156.11c0,242.56 19.71,314.28 145.04,518.4 255.79,416.59 23.8,546.48 212.07,919.68 180.89,358.57 430.71,353.98 604.74,527.02 169.43,168.44 160.42,419.39 527.15,604.59 72.53,36.63 140.67,49.81 227.8,65.17 211.37,37.25 364.94,-77.04 694.84,143.95 619.31,414.89 891.54,-144.57 1354.36,-144.57 119.47,0 96.51,28.12 237.11,3.48 92.89,-16.28 161.59,-28.9 231.63,-61.59 357.96,-167.05 377.37,-439 530.59,-601.16 207.55,-219.67 704.43,-221.74 698.19,-999.43 -4.26,-530.67 273.28,-394.41 273.28,-975.54 0,-108.1 -33.12,-201.69 -71.1,-280.13l-129.67 -221.56c-120.25,-247.4 -35.33,-376.85 -89.37,-632.62 -109.67,-519.08 -461.22,-519.46 -681.2,-743.24 -138.72,-141.11 -261.38,-620.75 -765.85,-658.59 -325.17,-24.39 -355.07,32.78 -604.73,-97.73 -221.9,-116.02 -433.37,-278.34 -814.16,-131.96 -112.62,43.28 -130.49,73.89 -225.94,125.29 -406.08,218.64 -710.56,-49.22 -1092.11,332.33 -135.84,135.84 -159.51,296.57 -291.31,430.66 -219.02,222.8 -571.73,225.07 -681.2,743.24 -52.05,246.39 26.9,375.2 -83.33,619.13 -63.67,140.89 -206.8,273.38 -206.8,515.17z"/>
   <path class="fil0" d="M5396.62 8092.28l218.64 854.56c37.34,136.15 80.12,279.57 116.95,429.41l84.42 325.35c25.66,94.68 -15.28,41.72 48.3,88.3 18.51,-69.33 395.23,-634.26 472.13,-757.19 56.32,-90.04 103.43,-165.18 152.28,-257.48 71.65,5.96 205.66,93.15 279.69,130.09l540.11 279.43c89.33,46.5 164.43,111.57 272.93,136.85 -7.46,-89.62 -40.57,-162.91 -62.63,-249.58 -21.01,-82.54 -49.78,-179.05 -70.08,-261.63 -44.3,-180.17 -94.75,-349.53 -140.61,-522.83l-210.5 -784.66c-21.22,-77.37 -56.26,-193.65 -62.54,-269.18l-39.03 0c-56.52,242.63 -362.33,520.39 -621.58,607.73 -212.43,71.57 -295.29,36.49 -548.98,55.92 -183.95,14.09 -273.18,158.5 -429.5,194.92z"/>
   <path class="fil0" d="M2430.66 9321.58c108.5,-25.28 183.59,-90.35 272.93,-136.85l540.11 -279.43c67.03,-33.5 221.43,-125.24 279.69,-130.09 94.24,178.11 603.06,934.72 624.41,1014.67 58.25,-42.67 19.29,22.72 70.06,-183.61l398.25 -1514.01c-148.75,-34.66 -235.46,-172.72 -411.56,-193.35 -303.19,-35.5 -600.77,49.9 -940.01,-289.3 -91.94,-91.93 -215.92,-236.11 -248.49,-375.93l-39.03 0c-14.85,178.36 -535.3,1955.03 -546.36,2087.88z"/>
   <path class="fil0" d="M3659.97 5984.88l112.31 141.36c125.81,141.94 261.6,255.97 425.5,355.01 768.95,464.63 1817.45,121.98 2154.97,-515.88l-111.69 -141.98c-125.02,-130.57 -309.07,-238.29 -476.67,-305.07 -106.49,-42.43 -89.28,-46.24 -161.28,7.8 -351.44,263.78 -828.54,271.24 -1182.41,8.78 -80.57,-59.76 -54.46,-63.56 -172.37,-16.58 -244.43,97.39 -468.62,240.27 -588.36,466.56z"/>
   <path class="fil0" d="M4245.36 4677.52l0 117.07c0,352.06 350.41,702.46 702.46,702.46l117.09 0c354.32,0 702.46,-349.74 702.46,-702.46l0 -117.07c0,-349.63 -350.52,-702.46 -702.46,-702.46l-117.09 0c-349.52,0 -702.46,352.94 -702.46,702.46z"/>
   <path class="fil0" d="M4186.82 774.93c21.41,80.21 30.17,54.24 91.22,103.91 71.13,57.87 291.89,268.82 357.57,286.35 -39.03,167.53 -122.45,415.49 -136.59,585.39 127.69,-29.75 430.79,-284.13 507.33,-284.13l366.87 209.95c50.83,33.37 75.06,58.94 140.46,74.18 -14.14,-169.89 -97.56,-417.86 -136.59,-585.39 66.39,-17.73 278,-218.81 347.03,-277.38 62.25,-52.81 80.31,-32.56 101.76,-112.88 -132.7,0 -208.97,-14.53 -312.24,-19.48 -309.13,-14.82 -257.2,41.55 -395.84,-306.62 -28.1,-70.59 -86.03,-188.2 -91.94,-259.29 -86.09,63.07 -157.48,362.6 -219.33,483.13 -48.44,94.41 -137.05,79.42 -268.66,82.56 -114.44,2.74 -207.68,19.69 -351.06,19.69z"/>
   <path class="fil0" d="M2625.79 1457.89c-120.18,32.09 -348.44,260.68 -468.31,292.69l0 39.02c85.26,1.9 187.76,31.46 284.33,47.39 97.27,16.04 215.27,48.27 301.06,50.18 1.37,61.69 132.97,517.66 156.1,565.88 94.74,-69.41 229.87,-507.33 331.72,-507.33 176.49,0 376.6,-20.04 546.36,19.51 -16.22,-60.73 -39.8,-69.24 -77.75,-117.38 -98.75,-125.26 -238.44,-220.81 -312.51,-331.42l195.13 -565.87c-76.73,17.87 -189.86,85.15 -266.67,123.58l-279.69 130.09c-128.14,-85.8 -351.19,-289.26 -468.31,-351.23 0,227.04 58.54,370.28 58.54,604.9z"/>
   <path class="fil0" d="M6977.17 1204.22l-546.36 -253.67c13.04,55.98 24.93,67.84 46.49,129.12l148.64 436.76c-69.59,103.92 -361.39,340.66 -390.26,448.8 169.76,-39.55 369.87,-19.51 546.36,-19.51 77.96,0 130.62,171.17 169.37,240.41 31.57,56.41 47.57,74.43 77.9,136.74 31.2,64.14 34.3,93.44 84.46,130.19 23.13,-48.22 154.73,-504.19 156.1,-565.88 138.7,-3.09 447.77,-94.5 585.39,-97.56l0 -39.02c-113.79,-30.38 -341.54,-258.85 -468.31,-292.69 0,-105.94 51.37,-549.31 78.06,-604.9 -108.55,25.28 -385.12,282.46 -487.82,351.23z"/>
   <path class="fil0" d="M1376.96 2706.71c-185.26,0 -422.69,-74 -604.9,-78.05 49.84,94.19 109.93,152.63 172.93,236.83 29.76,39.77 53.66,71.94 83.42,111.72 13.56,18.12 94.88,115.44 94.88,119.76 0,123.44 -221.86,398.63 -234.15,546.35l565.87 -195.13c33.41,49.9 353.67,389.59 429.28,409.77 0,-221.98 -19.51,-376.28 -19.51,-604.9 99.11,-23.09 163.13,-76.15 247.42,-123.33 54.91,-30.73 213.81,-118.03 259.91,-130.33l0 -39.03c-85.4,-7.1 -441.99,-127.24 -565.87,-156.1 0,-115.54 -23.92,-183.57 -41.64,-290.08 -14.72,-88.49 -35.09,-205.89 -55.92,-295.31 -49.44,36.21 -193.4,272.49 -249.63,355.26 -33.26,48.95 -67.6,78.29 -82.09,132.56z"/>
   <path class="fil0" d="M8206.48 2804.28c-89.07,20.75 -183.87,53.22 -273.26,77.98 -91.4,25.31 -192.09,69.76 -292.62,78.12l0 39.03c48,12.82 189.48,92.38 247.26,123.48 89.71,48.29 155.8,105.89 260.08,130.18 0,228.61 -19.51,382.92 -19.51,604.9 75.33,-20.11 395.64,-359.52 429.28,-409.77l565.87 195.13c-11.1,-133.48 -234.15,-443.72 -234.15,-526.84 0,-46.94 278.77,-350.89 351.23,-487.82 -189.75,4.22 -403.07,78.05 -604.9,78.05 -15.12,-56.64 -38.7,-78.65 -72.43,-122.69 -35.11,-45.84 -55.98,-79.58 -87.56,-127.08 -41.17,-61.93 -123.26,-202.55 -171.72,-238.05l-97.56 585.39z"/>
  </g>
 </g>
</svg>
